<svg xmlns="http://www.w3.org/2000/svg" viewBox="985 415 240 260">
  <rect x="985" y="415" width="240" height="260" fill="#000000"/>
  <path fill="#FF18A8" d="M 1105.56 453.323 C 1122.8 449.843 1149.11 457.31 1162.74 467.684 C 1194.13 491.575 1179.72 531.213 1147.64 545.907 C 1139.75 549.521 1133.73 551.512 1125.29 554.094 C 1158.38 561.214 1195 576.955 1186.43 619.405 C 1178.05 660.914 1122.94 682.324 1084.68 673.881 C 1062.28 668.941 1027.39 647.364 1032.23 618.579 C 1040.04 588.136 1088.51 598.374 1075.13 634.083 L 1074.74 635.106 C 1070.22 640.174 1063.98 645.397 1057.37 646.845 C 1056.23 647.096 1055.93 647.253 1055.24 648.21 C 1055.74 652.813 1058.22 655.099 1061.98 657.423 C 1091.78 675.882 1124.32 669.248 1131.63 631.9 C 1135.44 612.467 1133.98 592.857 1123.83 575.639 C 1112.74 556.838 1100.55 560.261 1082.45 556.385 L 1082.28 555.272 C 1086.36 551.629 1098.72 553.928 1104.03 552.887 C 1132.6 546.712 1132.81 521.199 1132.04 497.994 C 1130.77 460.128 1091.12 443.36 1077.32 484.376 C 1079.03 487.347 1082.03 492.044 1082.96 495.264 C 1088.34 513.924 1070.19 525.798 1053.95 517.118 C 1046.04 512.891 1044.63 507.333 1042.48 499.3 C 1049.79 468.404 1077.21 457.79 1105.56 453.323 z"/>
</svg>
