<svg xmlns="http://www.w3.org/2000/svg" viewBox="660 440 720 240" aria-label="2232.inc">
  <!-- 1st "2" (leftmost) — white -->
  <path fill="#FFFFFF" d="M 748.695 454.356 C 775.751 454.188 803.352 463.28 817.618 488.706 C 823.274 498.787 823.116 518.44 819.182 529.293 C 808.362 559.137 773.541 570.738 747.63 583.651 C 714.208 599.71 702.339 613.61 690.258 647.855 C 716.524 622.862 747.268 616.757 782.741 617.961 C 792.16 618.28 801.45 620.16 810.881 620.921 C 820.926 612.348 820.617 601.707 824.758 598.236 C 827.424 603.444 820.02 659.668 818.535 669.741 C 803.098 670.292 785.825 669.905 770.25 669.861 L 677.59 669.894 C 684.018 623.904 709.825 596.004 742.589 563.334 C 763.815 542.168 791.985 496.073 764.976 466.903 C 759.504 460.992 742.741 460.559 735.41 463.981 C 726.15 468.305 722.13 473.143 718.248 482.722 C 720.787 488.807 722.943 494.434 724.338 500.979 C 729.026 522.966 706.913 539.911 688.043 525.523 C 674.729 515.371 682.812 493.79 691.971 483.475 C 706.56 467.045 726.681 456.259 748.695 454.356 z"/>
  <!-- 4th char "2" (rightmost) — white -->
  <path fill="#FFFFFF" d="M 1288.15 454.514 C 1300.98 454.399 1309.41 454.789 1321.7 458.719 C 1353.47 468.879 1371.48 497.273 1360.13 529.714 C 1349.39 560.383 1311.14 572.621 1284.46 585.674 C 1252.7 601.212 1242.63 613.616 1231.47 646.359 C 1261.73 620.334 1290.68 616.686 1329.46 620.151 C 1359.42 622.827 1356.33 618.222 1367.52 593.745 C 1364.4 615.949 1364.07 649.949 1358.71 669.849 L 1309.5 669.845 L 1219.46 670.01 C 1223.4 605.651 1273.51 581.198 1306.08 533.385 C 1318.74 514.792 1327.41 477.377 1303.2 464.08 C 1291.45 457.629 1269.49 464.36 1262.81 476.363 C 1256.18 490.504 1272.55 505.738 1263.95 520.155 C 1258.24 529.737 1242.38 535.251 1232.99 528.266 C 1218.26 517.304 1220.97 499.328 1230.98 486.535 C 1245.46 468.035 1265.55 457.929 1288.15 454.514 z"/>
  <!-- 3rd char "3" — PINK accent -->
  <path fill="#FF18A8" d="M 1105.56 453.323 C 1122.8 449.843 1149.11 457.31 1162.74 467.684 C 1194.13 491.575 1179.72 531.213 1147.64 545.907 C 1139.75 549.521 1133.73 551.512 1125.29 554.094 C 1158.38 561.214 1195 576.955 1186.43 619.405 C 1178.05 660.914 1122.94 682.324 1084.68 673.881 C 1062.28 668.941 1027.39 647.364 1032.23 618.579 C 1040.04 588.136 1088.51 598.374 1075.13 634.083 L 1074.74 635.106 C 1070.22 640.174 1063.98 645.397 1057.37 646.845 C 1056.23 647.096 1055.93 647.253 1055.24 648.21 C 1055.74 652.813 1058.22 655.099 1061.98 657.423 C 1091.78 675.882 1124.32 669.248 1131.63 631.9 C 1135.44 612.467 1133.98 592.857 1123.83 575.639 C 1112.74 556.838 1100.55 560.261 1082.45 556.385 L 1082.28 555.272 C 1086.36 551.629 1098.72 553.928 1104.03 552.887 C 1132.6 546.712 1132.81 521.199 1132.04 497.994 C 1130.77 460.128 1091.12 443.36 1077.32 484.376 C 1079.03 487.347 1082.03 492.044 1082.96 495.264 C 1088.34 513.924 1070.19 525.798 1053.95 517.118 C 1046.04 512.891 1044.63 507.333 1042.48 499.3 C 1049.79 468.404 1077.21 457.79 1105.56 453.323 z"/>
  <!-- 2nd char "2" upper — white -->
  <path fill="#FFFFFF" d="M 887.215 600.646 C 908.87 564.951 963.461 535.448 952.812 484.01 C 947.51 458.403 916.725 454.349 902.057 474.427 C 894.91 489.978 906.312 501.708 901.497 518.711 C 897.905 531.397 877.738 534.859 871.845 529.465 C 838.276 498.74 888.685 462.98 914.639 456.895 C 964.801 445.136 1020.18 483.769 993.182 536.628 C 974.215 568.913 925.291 579.51 894.695 603.218 C 884.635 613.477 874.837 629.889 871.435 643.824 L 864.199 644.175 C 868.775 630.464 877.407 611.375 887.215 600.646 z"/>
  <!-- 2nd char "2" base — white -->
  <path fill="#FFFFFF" d="M 991.774 621.041 C 994.755 616.886 998.155 611.874 1000.69 607.405 C 1001.43 606.089 1001.8 603.2 1003.12 600.502 L 1004.18 601.206 C 1005.48 617.247 998.355 651.839 997.87 669.939 L 858.585 669.969 C 859.16 660.566 861.611 653.16 864.199 644.175 L 871.435 643.824 C 872.405 644.695 872.192 645.161 872.936 644.47 C 907.941 611.987 947.74 619.148 991.774 621.041 z"/>
</svg>
